<?xml version="1.0" encoding="UTF-8" standalone="no"?>
<!-- Created with Inkscape (http://www.inkscape.org/) -->

<svg
   width="700mm"
   height="200mm"
   viewBox="0 0 700 200"
   version="1.1"
   id="svg5"
   inkscape:version="1.2.2 (732a01da63, 2022-12-09)"
   sodipodi:docname="forest.svg"
   xmlns:inkscape="http://www.inkscape.org/namespaces/inkscape"
   xmlns:sodipodi="http://sodipodi.sourceforge.net/DTD/sodipodi-0.dtd"
   xmlns="http://www.w3.org/2000/svg"
   xmlns:svg="http://www.w3.org/2000/svg">
  <sodipodi:namedview
     id="namedview7"
     pagecolor="#ffffff"
     bordercolor="#000000"
     borderopacity="0.25"
     inkscape:showpageshadow="2"
     inkscape:pageopacity="0.0"
     inkscape:pagecheckerboard="0"
     inkscape:deskcolor="#d1d1d1"
     inkscape:document-units="mm"
     showgrid="false"
     inkscape:zoom="0.50646226"
     inkscape:cx="1296.2466"
     inkscape:cy="427.47509"
     inkscape:window-width="1920"
     inkscape:window-height="991"
     inkscape:window-x="-9"
     inkscape:window-y="-9"
     inkscape:window-maximized="1"
     inkscape:current-layer="g237">
    <inkscape:grid
       type="xygrid"
       id="grid9"
       originx="0"
       originy="0" />
  </sodipodi:namedview>
  <defs
     id="defs2" />
  <g
     id="g237"
     transform="matrix(0.69878345,0,0,0.68106182,3.8143832,105.89528)"
     style="stroke-width:1.44956">
    <g
       id="g539"
       transform="matrix(0.79598006,0,0,0.77083718,50.687919,6.4398189)"
       style="opacity:0.75;stroke-width:1.85056"
       inkscape:label="g266">
      <rect
         style="fill:#803300;fill-opacity:0.995169;stroke-width:0.489626"
         id="rect535"
         width="14.627611"
         height="42.838005"
         x="130.11113"
         y="95.079491" />
      <path
         id="path537"
         style="fill:#008000;fill-opacity:0.995169;stroke-width:0.489626"
         inkscape:transform-center-x="-0.029968289"
         inkscape:transform-center-y="-7.523104"
         d="m 141.51459,8.4624794 -12.78681,22.8130776 -13.27413,22.532992 6.00997,-0.07648 -10.97297,18.361153 7.64036,-0.0956 -12.08092,20.992001 35.55339,-0.463021 35.55493,0.318843 -12.16049,-20.94084 7.71994,0.06666 -11.04791,-18.319812 6.0849,0.05323 -13.36301,-22.480281 z"
         transform="translate(-4.1793076,22.986247)" />
    </g>
    <g
       id="g266"
       transform="matrix(0.80500201,0,0,0.82745137,31.826298,21.534678)"
       style="opacity:0.85;stroke-width:1.77609"
       inkscape:label="g266">
      <rect
         style="fill:#803300;fill-opacity:0.995169;stroke-width:0.469923"
         id="rect262"
         width="14.627611"
         height="42.838005"
         x="82.747391"
         y="81.174278" />
      <path
         id="path264"
         style="fill:#008000;fill-opacity:0.995169;stroke-width:0.469923"
         inkscape:transform-center-x="-0.029968289"
         inkscape:transform-center-y="-7.523104"
         d="m 89.042841,10.1274 -12.78681,22.813078 -13.27413,22.532992 6.00997,-0.07648 -10.97297,18.361153 7.64036,-0.0956 -12.08092,20.992001 35.55339,-0.463021 35.554929,0.318843 -12.16049,-20.94084 7.71994,0.06666 -11.04791,-18.319812 6.0849,0.05323 -13.36301,-22.480281 z" />
    </g>
    <g
       id="g1879"
       transform="matrix(1.0062525,0,0,0.96535994,-8.8606061,-4.280027)"
       style="opacity:1;stroke-width:1.47075"
       inkscape:label="g266">
      <rect
         style="fill:#803300;fill-opacity:0.995169;stroke-width:0.389134"
         id="rect1875"
         width="14.627611"
         height="42.838005"
         x="130.11113"
         y="95.079491" />
      <path
         id="path1877"
         style="fill:#008000;fill-opacity:0.995169;stroke-width:0.389134"
         inkscape:transform-center-x="-0.029968289"
         inkscape:transform-center-y="-7.523104"
         d="m 141.51459,8.4624794 -12.78681,22.8130776 -13.27413,22.532992 6.00997,-0.07648 -10.97297,18.361153 7.64036,-0.0956 -12.08092,20.992001 35.55339,-0.463021 35.55493,0.318843 -12.16049,-20.94084 7.71994,0.06666 -11.04791,-18.319812 6.0849,0.05323 -13.36301,-22.480281 z"
         transform="translate(-4.1793076,22.986247)" />
    </g>
    <g
       id="g1894"
       transform="matrix(1.0062525,0,0,0.96535994,743.19271,0.32232812)"
       style="opacity:0.85;stroke-width:1.47075"
       inkscape:label="g266">
      <rect
         style="fill:#803300;fill-opacity:0.995169;stroke-width:0.389134"
         id="rect1890"
         width="14.627611"
         height="42.838005"
         x="130.11113"
         y="95.079491" />
      <path
         id="path1892"
         style="fill:#008000;fill-opacity:0.995169;stroke-width:0.389134"
         inkscape:transform-center-x="-0.029968289"
         inkscape:transform-center-y="-7.523104"
         d="m 141.51459,8.4624794 -12.78681,22.8130776 -13.27413,22.532992 6.00997,-0.07648 -10.97297,18.361153 7.64036,-0.0956 -12.08092,20.992001 35.55339,-0.463021 35.55493,0.318843 -12.16049,-20.94084 7.71994,0.06666 -11.04791,-18.319812 6.0849,0.05323 -13.36301,-22.480281 z"
         transform="translate(-4.1793076,22.986247)" />
    </g>
    <g
       id="g1900"
       transform="matrix(1.207503,0,0,1.1032685,680.86356,-13.21943)"
       style="opacity:1;stroke-width:1.25589"
       inkscape:label="g266">
      <rect
         style="fill:#803300;fill-opacity:0.995169;stroke-width:0.332286"
         id="rect1896"
         width="14.627611"
         height="42.838005"
         x="130.11113"
         y="95.079491" />
      <path
         id="path1898"
         style="fill:#008000;fill-opacity:0.995169;stroke-width:0.332286"
         inkscape:transform-center-x="-0.029968289"
         inkscape:transform-center-y="-7.523104"
         d="m 141.51459,8.4624794 -12.78681,22.8130776 -13.27413,22.532992 6.00997,-0.07648 -10.97297,18.361153 7.64036,-0.0956 -12.08092,20.992001 35.55339,-0.463021 35.55493,0.318843 -12.16049,-20.94084 7.71994,0.06666 -11.04791,-18.319812 6.0849,0.05323 -13.36301,-22.480281 z"
         transform="translate(-4.1793076,22.986247)" />
    </g>
  </g>
</svg>
